<svg height="511pt" viewBox="-85 0 511 511.99981" width="511pt" xmlns="http://www.w3.org/2000/svg"><path d="m13.699219 273.863281c3.570312 0 6.753906-2.539062 7.429687-6.175781 5.097656-27.484375 12.636719-56.390625 18.199219-76.234375 16.308594 29.625 64.785156 29.695313 77.261719-7.507813 19.273437-57.5625 14.464844-107.738281-2.132813-163.261718 11.800781 6.742187 22.726563 13.625 32.59375 20.546875 3.425781 2.398437 8.132813 1.574219 10.53125-1.84375 2.398438-3.414063 1.570313-8.132813-1.84375-10.53125-13.40625-9.402344-28.632812-18.707031-45.285156-27.664063-7.4375-4.011718-15.988281 2.753906-14.121094 10.703125.808594 3.617188 2.160157 8.152344 3.722657 13.402344 15.613281 52.519531 20.449218 99.382813 2.195312 153.839844-9.253906 27.6875-50.855469 24.207031-53.082031-8.09375-.761719-10.84375-15.992188-12.402344-19.058594-2.105469-4.777344 15.964844-16.660156 57.285156-23.847656 95.988281-.855469 4.597657 2.636719 8.9375 7.4375 8.9375zm0 0"/><path d="m308.113281 395.714844c-3.535156-2.21875-8.203125-1.160156-10.421875 2.378906-14.261718 22.664062-33.902344 40.535156-56.71875 52.375v-54.101562c21.527344-17.394532 35.3125-44 35.3125-73.773438 0-21.578125-.019531-5.039062-.019531-27.292969 0-14.027343-6.875-27.179687-18.394531-35.183593l-19.582032-13.605469v-16.730469c0-26.457031-34.226562-37.242188-49.402343-15.542969-12.960938-10.410156-32.414063-6.820312-40.679688 8.023438-14.191406-9.9375-34.042969-4.03125-40.574219 11.933593-16.710937-9.867187-41.34375.695313-41.34375 22.464844 0 87.453125-.078124 84.660156.234376 88.417969 1.1875 15.644531 7.214843 30.507813 15.953124 41.617187.734376 1.832032 12.304688 14.015626 19.128907 17.816407v49.152343c-54.789063-25.070312-92.964844-81.886718-84.910157-156.640624.441407-4.140626-2.5625-7.871094-6.703124-8.324219-4.164063-.441407-7.882813 2.5625-8.324219 6.714843-9.253907 85.472657 37.683593 149.355469 99.9375 174.71875v15.863282c0 14.34375 11.671875 26.003906 26.003906 26.003906h87.359375c14.332031 0 26.003906-11.660156 26.003906-26.003906v-18.796875c27.980469-12.878907 52.488282-34 69.507813-61.0625 2.230469-3.527344 1.160156-8.195313-2.367188-10.421875zm-109.019531-165.933594c0-6.632812 5.402344-12.035156 12.035156-12.035156 6.640625 0 12.042969 5.402344 12.042969 12.035156v8.34375c-8.988281-2.003906-20.582031 3.589844-24.078125 18.9375zm0 41.511719c2.882812 12.8125 11.417969 18.101562 16.410156 21.628906v3.296875c-7.863281 3.082031-16.410156-2.75-16.410156-11.207031zm-38.074219-40.90625c5.378907-11.640625 22.957031-7.8125 22.957031 5.058593v49.566407c0 6.640625-5.402343 12.035156-12.042968 12.035156-6.632813 0-12.035156-5.394531-12.035156-12.035156 0-54.574219-.390626-51.371094 1.121093-54.625zm-40.324219 14.167969c0-6.640626 5.390626-12.042969 12.03125-12.042969 6.128907 0 12.035157 4.566406 12.035157 12.992187v39.507813c0 6.640625-5.390625 12.035156-12.035157 12.035156-6.640624 0-12.03125-5.394531-12.03125-12.035156 0-22.847657 0-17.515625 0-40.457031zm-39.277343 11.734374c.746093-14.484374 24.066406-14.082031 24.066406.574219v26.71875c0 14.945313-24.078125 14.945313-24.078125 0 0-.191406 0-27.113281.011719-27.292969zm144.433593 229.707032c0 5.996094-4.886718 10.886718-10.882812 10.886718-7.917969 0-71.757812 0-87.359375 0-6 0-10.886719-4.890624-10.886719-10.886718 0-15.019532 0-58.714844 0-73.714844 16.742188 6.402344 25.882813 5.152344 64.722656 5.152344 16.035157 0 31.15625-4 44.40625-11.058594zm-44.40625-83.679688c-36.84375 0-63.664062 4.707032-86.3125-23.96875-8.132812-9.816406-13.726562-24.339844-13.726562-39.285156v-31.6875c8.457031 4.011719 21.742188 3.921875 30.832031-4.585938 10.472657 12.09375 29.066407 12.546876 40.09375.976563 10.679688 11.179687 28.519531 11.199219 39.203125.011719.757813.804687 1.574219 1.5625 2.441406 2.269531-14.425781 8.726563-24.421874 21.40625-29.664062 37.984375-1.25 3.992188.980469 8.222656 4.960938 9.472656 3.980468 1.25 8.222656-.964844 9.472656-4.949218 3.09375-9.84375 8.304687-17.59375 14.988281-23.5625 15.1875-13.636719 33.671875-14.773438 36.886719-15.328126 5.21875-.949218 8.464844-7.457031 7.941406-13.050781-.746094-7.84375-5.625-9.898437-17.992188-18.617187-11.578124-8.074219-6.941406-25.054688-.792968-25.054688 1.78125 0 0-.875 29.46875 19.59375 7.457031 5.179688 11.902344 13.695313 11.902344 22.765625 0 7.046875.019531 20.238281.019531 27.292969 0 43.941406-35.769531 79.722656-79.722657 79.722656zm0 0"/><path d="m331.847656 250.503906c-9.476562 0-7.632812 9.269532-30.726562 30.164063-2.261719 2.03125-5.589844-.414063-4.527344-3.074219 21.75-57.121094 21.015625-116.503906-23.21875-158.765625-6.167969-5.894531-16.480469-1.507813-16.480469 7.023437 0 1.707032 3.023438 15.9375-.925781 33.148438-1.261719 5.527344-9.1875 5.210938-10.070312-.363281-6.84375-43.023438-27.707032-78.25-65.679688-110.84375-3.175781-2.722657-7.941406-2.359375-10.664062.816406-2.722657 3.164063-2.359376 7.933594.816406 10.652344 35.09375 30.136719 54.351562 62.46875 60.589844 101.742187 3.503906 21.984375 34.78125 23.035156 39.75 1.363282 1.574218-6.875 2.378906-14.101563 2.410156-21.46875 29.726562 37.496093 26.457031 86.386718 9.34375 131.304687-6.6875 17.710937 15.019531 32.171875 28.792968 19.671875 4.777344-4.324219 9.304688-8.917969 13.527344-13.757812l-5.242187 55.574218c-1.261719 13.3125-4.292969 26.335938-9.03125 38.722656-1.492188 3.898438.464843 8.273438 4.363281 9.765626 3.964844 1.484374 8.289062-.507813 9.757812-4.367188 5.21875-13.664062 8.578126-28.035156 9.957032-42.699219.054687-.566406 7.046875-74.449219 7.023437-75.015625-.078125-5.382812-4.371093-9.59375-9.765625-9.59375zm0 0"/></svg>