<svg height="512pt" viewBox="-88 0 512 512.00039" width="512pt" xmlns="http://www.w3.org/2000/svg"><path d="m335.292969 259.742188-7.191407 76.277343c-7.699218 81.644531-76.234374 144.027344-158.242187 144.027344h-10.859375c-17.121094 0-33.605469-2.707031-49.058594-7.722656-24.152344-7.824219-45.789062-21.285157-63.332031-38.828125-28.765625-28.765625-46.5585938-68.503906-46.5585938-112.398438-1.1796872-39.976562 18.6835938-114.535156 30.1757808-152.980468.722657-2.394532 4.226563-2 4.402344.5 2.71875 41.535156 57.476563 46.757812 69.699219 10.234374 28.816406-86.027343-.707031-153.050781-5.867187-176.105468-.425782-1.886719 1.554687-3.390625 3.253906-2.46875 98.566406 53.058594 127.339844 106.34375 135.261718 156.246094 2.246094 14.164062 22.414063 14.867187 25.613282.890624 3.359375-14.703124 2.332031-27.917968 1.171875-35.449218-.320313-2.113282 2.226562-3.441406 3.773437-1.960938 50.597656 48.34375 37.273438 114.683594 21.976563 154.847656-3.980469 10.445313 8.839843 19.191407 17.128906 11.6875 9.234375-8.351562 17.492187-17.773437 24.539063-28.019531 1.242187-1.8125 4.082031-.964843 4.113281 1.222657zm0 0" fill="#d63030"/><path d="m335.292969 259.742188-7.191407 76.277343c-7.699218 81.644531-76.234374 144.027344-158.242187 144.027344h-10.859375c-17.121094 0-33.605469-2.707031-49.058594-7.722656-27.085937-29.53125-43.5625-68.554688-43.5625-111.363281-1.273437-41.9375 20.019532-120.152344 32.34375-160.480469.765625-2.519531 4.527344-2.105469 4.714844.507812.050781.671875.101562 1.335938.152344 1.988281 3.390625 40.589844 61.335937 47.375 74.546875 8.765626 23.003906-67.21875 11.316406-123.394532 1.566406-157.671876 36.566406 33.914063 51.820313 68.113282 57.273437 102.453126 2.246094 14.164062 22.414063 14.867187 25.613282.890624 3.359375-14.703124 2.332031-27.917968 1.171875-35.449218-.320313-2.113282 2.226562-3.441406 3.773437-1.960938 50.597656 48.34375 37.273438 114.683594 21.976563 154.847656-3.980469 10.445313 8.839843 19.191407 17.128906 11.6875 9.234375-8.351562 17.492187-17.773437 24.539063-28.019531 1.242187-1.8125 4.082031-.964843 4.113281 1.222657zm0 0" fill="#f44545"/><path d="m231.511719 319.046875v176.890625c0 8.835938-7.226563 16.0625-16.0625 16.0625h-95.105469c-8.835938 0-16.054688-7.226562-16.054688-16.0625v-176.890625c0-8.835937 7.21875-16.066406 16.054688-16.066406h95.105469c8.835937 0 16.0625 7.230469 16.0625 16.066406zm0 0" fill="#f2bb88"/><path d="m231.515625 319.046875v176.886719c0 8.839844-7.226563 16.0625-16.0625 16.0625h-70.574219c-8.835937 0-16.0625-7.222656-16.0625-16.0625v-176.886719c0-8.835937 7.226563-16.0625 16.0625-16.0625h70.574219c8.835937 0 16.0625 7.226563 16.0625 16.0625zm0 0" fill="#f2d1a5"/><path d="m220.914062 283.660156v68.359375c0 33.929688-27.761718 61.691407-61.695312 61.691407h-18.445312c-40.007813 0-72.742188-32.730469-72.742188-72.738282v-57.308594h152.882812zm0 0" fill="#f2d1a5"/><g fill="#f2bb88"><path d="m220.914062 300.777344v51.25c0 33.925781-27.761718 61.683594-61.6875 61.683594h-5.8125c-.066406-.003907-.097656-.003907-.097656-.003907h-11.828125c-5.296875 0-9.300781-4.796875-8.355469-10.007812l8.941407-49.1875c1.664062-9.167969 5.335937-17.898438 11.011719-25.289063 18.445312-24.03125 49.261718-25.820312 49.261718-25.820312s7.628906-1.21875 18.566406-2.625zm0 0"/><path d="m108.1875 254.058594v33.117187c0 8.988281-7.355469 16.339844-16.34375 16.339844h-7.476562c-8.988282 0-16.339844-7.351563-16.339844-16.339844v-33.117187c0-6.269532 3.582031-11.746094 8.796875-14.476563 4.332031-2.285156 7.308593-1.867187 15.019531-1.867187 8.988281 0 16.34375 7.355468 16.34375 16.34375zm0 0"/><path d="m148.4375 242.433594v45.21875c0 10.011718-8.1875 18.195312-18.195312 18.195312h-3.765626c-10.011718 0-18.195312-8.183594-18.195312-18.195312v-45.21875c0-6.570313 3.53125-12.359375 8.789062-15.558594 4.914063-2.984375 8.894532-2.636719 13.167969-2.636719 10.011719 0 18.199219 8.1875 18.199219 18.195313zm0 0"/><path d="m188.609375 234.109375v52.527344c0 10.570312-8.644531 19.210937-19.210937 19.210937h-1.738282c-10.566406 0-19.210937-8.640625-19.210937-19.210937v-52.527344c0-10.589844 8.671875-19.210937 19.210937-19.210937h1.738282c10.566406 0 19.210937 8.648437 19.210937 19.210937zm0 0"/><path d="m228.769531 228.917969v57.121093c0 10.898438-8.917969 19.808594-19.8125 19.808594h-.53125c-10.898437 0-19.816406-8.910156-19.816406-19.808594v-57.121093c0-10.265625 8.097656-19.816407 20.347656-19.816407 10.894531 0 19.8125 8.917969 19.8125 19.816407zm0 0"/></g><path d="m108.1875 254.058594v25.296875c-2.257812 1.191406-4.828125 1.867187-7.542969 1.867187h-7.480469c-8.988281 0-16.339843-7.355468-16.339843-16.335937v-25.300781c4.332031-2.289063 7.308593-1.867188 15.019531-1.867188 8.988281-.003906 16.34375 7.351562 16.34375 16.339844zm0 0" fill="#f2d1a5"/><path d="m148.4375 242.433594v38.484375c-2.75 1.671875-5.96875 2.636719-9.40625 2.636719h-3.757812c-10.007813 0-18.199219-8.1875-18.199219-18.195313v-38.484375c4.910156-2.984375 8.890625-2.636719 13.167969-2.636719 10.007812 0 18.195312 8.1875 18.195312 18.195313zm0 0" fill="#f2d1a5"/><path d="m188.609375 234.109375v46.359375c-3.007813 1.949219-6.582031 3.085938-10.410156 3.085938h-1.742188c-10.5625 0-19.210937-8.640626-19.210937-19.210938v-46.355469c11.824218-7.699219 31.363281-.847656 31.363281 16.121094zm0 0" fill="#f2d1a5"/><path d="m228.769531 228.917969v51.269531c-3.152343 2.125-6.949219 3.367188-11.015625 3.367188h-.535156c-10.894531 0-19.8125-8.910157-19.8125-19.808594v-51.273438c12.652344-8.527344 31.363281-.097656 31.363281 16.445313zm0 0" fill="#f2d1a5"/><path d="m228.769531 250.425781v29.761719c-3.152343 2.125-6.949219 3.367188-11.015625 3.367188h-.535156c-10.894531 0-19.8125-8.910157-19.8125-19.808594v-19.144532c2.523438-3.257812 6.363281-5.003906 10.253906-5.003906 2.550782 0 5.109375.742188 7.347656 2.292969l5.589844 3.886719zm0 0" fill="#f2bb88"/><path d="m267.6875 296.316406c0-11.84375-5.796875-22.933594-15.523438-29.691406l-22.667968-15.75-5.160156-3.585938c-2.070313-1.433593-4.4375-2.121093-6.789063-2.121093-3.789063 0-7.519531 1.785156-9.839844 5.117187-7.8125 11.246094-5.003906 26.84375 6.242188 34.65625l7.472656 5.15625c.175781.125.34375.257813.503906.398438 3.441407 2.984375 1.96875 8.679687-2.394531 9.988281-7.066406 2.117187-26.210938 9.289063-40.9375 28.035156-5.941406 7.5625-9.839844 16.527344-11.558594 25.992188l-6.824218 37.546875c-2.050782 11.269531 6.609374 21.644531 18.066406 21.644531 49.183594 0 89.429687-40.242187 89.429687-89.429687v-13.027344s-.019531-14.929688-.019531-14.929688zm0 0" fill="#f2d1a5"/><path d="m151.808594 413.710938h-11.035156c-40.007813 0-72.742188-32.730469-72.742188-72.738282v-46.273437c0-6.097657 4.941406-11.039063 11.035156-11.039063 6.097656 0 11.039063 4.941406 11.039063 11.039063v57.300781c0 33.945312 27.769531 61.710938 61.703125 61.710938zm0 0" fill="#f2bb88"/></svg>